<svg xmlns="http://www.w3.org/2000/svg" viewBox="0 0 275.57 315.33"><defs><style>.cls-1{fill:#7a9299;}</style></defs><title>curled</title><g id="elephant"><g id="head"><path class="cls-1" d="M148.12,193c16.44-6.73,4.17-16.73,30.48-18.45,0,0,57.37-122.26,0-144.55,0,0-49.68-5.56-70.38,38.21,0,0-67.78,114.75-54.91,173.63,11.16,51,42.81,69.86,73.88,56,29-13,20-68.9-12.65-72.93-16.33,0-1.16,2.37-9.33,13.45s12.8-.51,15.27,1.75c7.74,7.11,1.06,39.65-15.85,21.58s-5.83-56,12.83-60.65S148.12,193,148.12,193Z"/></g></g></svg>