<svg id="elephant" xmlns="http://www.w3.org/2000/svg" viewBox="0 0 628.24 412.69">

	<defs>
		<style>
			.cls-1{fill:#607075;}
			.cls-2{fill:#6f848c;}
			.cls-3{fill:#ddcd9f;}
			.cls-4{fill:#7a9299;}
			.cls-5{fill:#f1e0ab;}
			.cls-6{fill:#394244;}
			
		</style>
	</defs>
	<title>elephant</title>
	<g id="right_back" data-name="right back">
		<path id="right_back_leg" 
			data-name="right back leg" 
			class="cls-1" 
			d="M521,265.32s3.12,32.43,36.8,42.41L584,373.84s1.87,13.1-5,20-1.87,13.72-1.87,13.72S618.29,420,632,385.69c3.12-15.59-26.19-42.41-38-124.11L565.28,183Z" 
			transform="translate(-4 -9)"/>
	</g>
	<g id="left_back" data-name="left back">
		<path id="left_back_leg" 
			data-name="left back leg" 
			class="cls-2" 
			d="M576.67,192s-31,109.33-42.85,125.59-15.52,66.49-13.3,73.87S522,415.12,508,414.39s-40.63,0-40.63,0-7.39-11.11,6.65-19.23,14.77-74.62,10.34-80.53-19.21-31.77-21.42-43.59c0,0-18.66-63.73,25.67-101S580,151.79,576.67,192Z" 
			transform="translate(-4 -9)"/>
	</g>
	<g id="right_front" data-name="right front">
		<path id="right_front_leg" 
			data-name="right front leg" 
			class="cls-1" 
			d="M348,216.11s-26.6,54.08-26.6,84.62,5.91,93.58,5.91,93.58S348,415.9,318.49,418,264.31,431.74,286,399.24c9.85-28.57-44.33-106.39-24.63-146.78S348,216.11,348,216.11Z" transform="translate(-4 -9)"/>
	</g>
	<g id="left_front_leg" data-name="left front leg">
		<path id="left_front_leg-2" 
			data-name="left front leg" 
			class="cls-2" 
			d="M293.22,234.9s-17.73,60.58-42.11,70.92-52.8,51.6-57.24,84.85c0,0,5.52,30.46-1.86,30.46S135,422,135.12,413c-.12-7.95-2.57-13.09,8.76-21.8,10.73-8.26,5.28-37.31,20.05-57.25S203.09,263,207.52,194.27c0,0-2.39-68.15,30.12-82.92S353.72,115.14,293.22,234.9Z" transform="translate(-4 -9)"/>
	</g>
	<g id="body">
		<path class="cls-2" 
			d="M575.51,190.37s.16,132.54-113.77,79.05c0,0-82,30.29-167.7-34.72,0,0-117.46-50.24-118.94-73.88S187.66,26.37,276.31,42.62c0,0,83.48,10.34,131.5,5.17s82-15.51,130.76,26.6,36.94,116,36.94,116" 
			transform="translate(-4 -9)"/>
	</g>
	<g id="tail">
		<path class="cls-2" 
			d="M545,80s45.3,19.31,47.41,93,17.54,80.68,21,89.1,2,37.71-4.71,48.94L610,300l-3.24,7.74s-3.75-25-1.75-32.46l-3.25,14.48a44.44,44.44,0,0,1-.25-22c3-11.49-8.48-33.46-8.48-33.46s-22.89-43.16-20.9-58.89S545,80,545,80Z" 
			transform="translate(-4 -9)"/>
	</g>
	<g id="tusk_back" data-name="tusk back">
		<path class="cls-3" 
			d="M100.91,142s.29,52.3-60.83,48.23S67.24,217.66,97.34,187s21.29-46.16,21.29-46.16S109.9,131.48,100.91,142Z" 
			transform="translate(-4 -9)"/>
	</g>
	<g id="head">
		<path class="cls-4" 
			d="M158.35,36.67s-56.77-8.62-66.08,35.89c-6.1,29.13-18,35.09-22.87,109.45S44.66,386.16,113.88,386.16c10.24,0,5.44-19.64-1.63-26.66s-19,11.23-10.58-51.21S114.3,196,129.74,189.73s3.91-15.7,28.61-17.32C158.35,172.41,212.23,57.6,158.35,36.67Z" 
			transform="translate(-4 -9)"/>
	</g>
	<g id="tusk_front" data-name="tusk front">
		<path class="cls-5" 
			d="M97.43,178.39s-15.79,49.86-72.71,27.19S42.14,240,80.21,220.09s34.45-37.38,34.45-37.38S109.22,171.14,97.43,178.39Z" 
			transform="translate(-4 -9)"/>
	</g>
	<g id="eye">
		<path class="cls-6" d="M104,115.69s4.75-13.58,18.87-6.79" 
			transform="translate(-4 -9)"/>
		<ellipse class="cls-6" cx="115.32" cy="114.24" rx="7.42" ry="5.09" 
			transform="translate(-27.03 20.33) rotate(-13.19)"/>
	</g>
	<g id="ear">
		<path class="cls-4" 
			d="M157.4,36.65s145-79.31,139,30.7-68.22,81-101.48,127.06-35.34-2.86-37.52-9.38c-7.67-23,18.91-117.53,14.12-127.1C166.25,47.39,157.4,36.65,157.4,36.65Z" 
			transform="translate(-4 -9)"/>
	</g>





</svg>


