<svg id="lil_ele" data-name="lil ele" xmlns="http://www.w3.org/2000/svg" viewBox="0 0 216.04 192.94"><defs><style>.cls-1{fill:#597e82;}.cls-2{fill:#6b9299;}.cls-3{fill:#79a5af;}.cls-4{fill:#394244;}</style></defs><title>lil_ele</title><path id="lil_leg2" data-name="lil leg2" class="cls-1" d="M191.74,171.61s2.72,13.58-8.15,20.28,5,9.16,5,9.16S214.53,193.79,191.74,171.61Z" transform="translate(-32.11 -20.22)"/><path id="lil_leg" data-name="lil leg" class="cls-1" d="M134,157.72s3.3,24.8,8.5,27.64-8.09,14.53-12.79,11S124.07,158,134,157.72Z" transform="translate(-32.11 -20.22)"/><path id="lil_body" data-name="lil body" class="cls-2" d="M112.24,29.36s43.77,3.45,70.4,0c14.45-1.87,63.53,9,57.81,56.62S209,134.7,215.84,166.75s10.3,46.37.57,46.37-46.26,1.81-22.32-17.17c6.86-19.46-20.61-58.53-21.18-69.62,0,0-20.61,2.65-28.62-2.5,0,0-20,53.14-13.74,77.22,3.44,12.11-24.61,11.53-28.62,9.22s-6.29-4,0-13.18,5.16-56.66,0-64.1S98,103.12,98,103.12Z" transform="translate(-32.11 -20.22)"/><path id="lil_head" data-name="lil head" class="cls-3" d="M92.78,24.45S68.17,13.78,45.27,58.22s-11.24,86.11,0,86.21c14.88.13,4-9.16,4-9.16s-8.59-24,8-42.9C68.17,98.41,89.06,84,89.06,84S127.12,51,92.78,24.45Z" transform="translate(-32.11 -20.22)"/><path id="lil_ear" data-name="lil ear" class="cls-3" d="M92.78,24.45s43.5-16.66,64.67,16.18-63,68.89-67,62.59-2.86-20.48,4.58-40.58S92.78,24.45,92.78,24.45Z" transform="translate(-32.11 -20.22)"/><path id="lil_tail" data-name="lil tail" class="cls-3" d="M236.57,58.22s29.37,51.25-5.41,60.43c-17,4.61-24.85-6.27-24.85-6.27s-1.6-3.94,3.48-1.4,35.07,11.19,33.67-16.73c-.83-16.65-2.58-13.67-2.58-13.67Z" transform="translate(-32.11 -20.22)"/><g id="lil_eye" data-name="lil eye"><ellipse class="cls-4" cx="66.26" cy="59.23" rx="4.46" ry="3.06" transform="translate(-43.88 -3.54) rotate(-13.19)"/><path class="cls-4" d="M59.81,60S62.67,51.88,71.15,56" transform="translate(-32.11 -20.22)"/></g></svg>