<svg xmlns="http://www.w3.org/2000/svg" viewBox="0 0 284.63 183.23"><defs><style>.cls-1{fill:#617377;}.cls-2{fill:#7c949b;}.cls-3{fill:#6f848c;}.cls-4{fill:#394244;}</style></defs><title>lil_one</title><g id="little_one-2" data-name="little one"><path id="lil_right2" data-name="lil right2" class="cls-1" d="M221.8,135.13l7.46,8.41s-7.89,24,10.73,9.78,7.88-23.23,7.88-23.23l-23.34-20.55S203.6,117,221.8,135.13Z"/><path id="lil_right" data-name="lil right" class="cls-1" d="M112.91,90.52l32.48,61.58s-8.83,20.73,9.21,14.21,15.74-11.52,15.74-11.52L149,99.94,129.22,79.23Z"/><path id="lil_head" data-name="lil head" class="cls-2" d="M96.75,15.12S62.6,13.21,47.21,60.19s4.86,78.57,1.62,83.83,10.81,3.55,6.6,0-6.12-58.67,2.06-60c0,0,12.43,6,25.2-5.52S113.87,41.91,96.75,15.12Z"/><path id="lil_body" data-name="lil body" class="cls-3" d="M139.49,15.1s58.22-8.49,79.33,8.79,27.49,39.69-.15,93.82c0,0,10.51,49,7.06,49s-49.9,8.45-23.42-14.59l-8.06-43.87s-37.54,7.69-66-7.36c-7.86-4.15-24.52-16.28-24.52-16.28Z"/><path id="lil_left" data-name="lil left" class="cls-3" d="M103.69,84.59l-17.5,66.78s-21.59,10.46-2.55,17.84S104.33,171,104.33,171l28.18-82.74-8.31-6.67Z"/><path id="lil_ear" data-name="lil ear" class="cls-2" d="M86.08,21.31s42.53-30.37,59.54,2S105.52,93,86.08,86.11c-7.69-6.88,0-20.65,0-20.65Z"/><path id="lil_tail" data-name="lil tail" class="cls-2" d="M230.78,36.64s32.89,49.07-1.17,60.67c-16.67,5.79-25.22-4.52-25.22-4.52s-1.88-3.81,3.37-1.63,35.76,8.7,32.42-19c-2-16.56-3.09-11.76-3.09-11.76Z"/><g id="lil_eye" data-name="lil eye"><ellipse class="cls-4" cx="70.91" cy="52.08" rx="4.46" ry="3.06" transform="translate(-10.01 17.56) rotate(-13.19)"/><path class="cls-4" d="M64.46,52.89s2.85-8.16,11.33-4.08"/></g></g></svg>